# xmcd CD database file
#
# Track frame offsets:
#	150
#	19952
#	42507
#	61540
#	74912
#	99205
#	115287
#	134340
#	152277
#	174865
#
# Disc length: 2598 seconds
#
# Revision: 0
# Processed by: cddbd v1.5.1PL0 Copyright (c) Steve Scherf et al.
# Submitted via: CDex 1.51
#
DISCID=7d0a240a
DTITLE=トルーパー - 君を眠らせない
DYEAR=1900
DGENRE=JPop
TTITLE0=サムライハート
TTITLE1=新宿サンセット
TTITLE2=炎のソルジャー
TTITLE3=天使のlove song
TTITLE4=Lonely Blood
TTITLE5=ミッドナイト・パーティ
TTITLE6=Cool Moon
TTITLE7=WILD CAT
TTITLE8=地図のない旅へ
TTITLE9=スターダスト・アイズ
EXTD=
EXTT0=
EXTT1=
EXTT2=
EXTT3=
EXTT4=
EXTT5=
EXTT6=
EXTT7=
EXTT8=
EXTT9=
PLAYORDER=
